<svg width="138" height="30" viewBox="0 0 138 30" fill="none" xmlns="http://www.w3.org/2000/svg">
<g clip-path="url(#clip0_162_6979)">
<text x="35" y="23" font-family="Arial, Helvetica, sans-serif" font-size="23" font-weight="700" letter-spacing="-0.5" fill="#FFF3EA">HwPim</text>
<path fill-rule="evenodd" clip-rule="evenodd" d="M10 0C4.47715 0 0 4.47715 0 10V22.5H15V15H22.5V0H10Z" fill="#FF6700"/>
<path d="M15 7.5C15 3.35786 18.3579 0 22.5 0C26.6421 0 30 3.35786 30 7.5C30 11.6421 26.6421 15 22.5 15H15V7.5Z" fill="#FF9D4D"/>
<path d="M15 22.5C15 26.6421 11.6421 30 7.5 30C3.35786 30 -3.62116e-07 26.6421 0 22.5C3.6212e-07 18.3579 3.35786 15 7.5 15H15V22.5Z" fill="#FFE3D1"/>
<path fill-rule="evenodd" clip-rule="evenodd" d="M10 0C4.47715 0 0 4.47715 0 10V22.5H15V15H22.5V0H10Z" fill="#FF6700"/>
<path d="M15 7.5C15 3.35786 18.3579 0 22.5 0C26.6421 0 30 3.35786 30 7.5C30 11.6421 26.6421 15 22.5 15H15V7.5Z" fill="#FF9D4D"/>
<path d="M15 22.5C15 26.6421 11.6421 30 7.5 30C3.35786 30 -3.62116e-07 26.6421 0 22.5C3.6212e-07 18.3579 3.35786 15 7.5 15H15V22.5Z" fill="#FFE3D1"/>
</g>
<defs>
<clipPath id="clip0_162_6979">
<rect width="137.5" height="30" fill="white"/>
</clipPath>
</defs>
</svg>
